<?xml version="1.0" encoding="UTF-8" standalone="no"?>
<svg width="106px" height="65px" viewBox="0 0 106 65" version="1.1" xmlns="http://www.w3.org/2000/svg" xmlns:xlink="http://www.w3.org/1999/xlink">
    <!-- Generator: Sketch 3.8.2 (29753) - http://www.bohemiancoding.com/sketch -->
    <title>Group</title>
    <desc>Created with Sketch.</desc>
    <defs></defs>
    <g id="Page-1" stroke="none" stroke-width="1" fill="none" fill-rule="evenodd">
        <g id="Group">
            <path d="M50.7480003,9.75741272 L45.636,21.356 L44.124,21.356 L38.9759999,9.75741272 L38.904,26 L34.62,26 L34.62,0.8 L38.976,0.8 L44.9519998,13.4000004 L51,0.8 L55.284,0.8 L55.284,26 L50.748,26 L50.7480003,9.75741272 Z M63.828,16.64 L57.06,0.8 L62.46,0.8 L66.1139999,10.7564524 L70.308,0.8 L75.168,0.8 L68.364,16.604 L68.364,26 L63.828,26 L63.828,16.64 Z" id="icon" fill="#FD6173"></path>
            <path d="M14.912,63.3960122 C14.2879969,63.9240148 13.4540052,64.308011 12.41,64.5480122 C11.3659948,64.7880134 10.3280052,64.9080122 9.296,64.9080122 C7.99999352,64.9080122 6.79400558,64.6860144 5.678,64.2420122 C4.56199442,63.79801 3.5840042,63.0600174 2.744,62.0280122 C1.9039958,60.996007 1.2440024,59.6400206 0.764,57.9600122 C0.2839976,56.2800038 0.044,54.2160244 0.044,51.7680122 C0.044,49.2239995 0.3139973,47.1120206 0.854,45.4320122 C1.3940027,43.7520038 2.10199562,42.4140172 2.978,41.4180122 C3.85400438,40.4220072 4.85599436,39.7200142 5.984,39.3120122 C7.11200564,38.9040102 8.25199424,38.7000122 9.404,38.7000122 C10.5800059,38.7000122 11.6059956,38.7960112 12.482,38.9880122 C13.3580044,39.1800132 14.0719972,39.396011 14.624,39.6360122 L13.724,43.6320122 C13.2679977,43.392011 12.7340031,43.2060129 12.122,43.0740122 C11.5099969,42.9420115 10.7840042,42.8760122 9.944,42.8760122 C8.28799172,42.8760122 7.01600444,43.596005 6.128,45.0360122 C5.23999556,46.4760194 4.796,48.7319968 4.796,51.8040122 C4.796,53.1240188 4.89799898,54.3300067 5.102,55.4220122 C5.30600102,56.5140177 5.62999778,57.4560082 6.074,58.2480122 C6.51800222,59.0400162 7.08199658,59.65201 7.766,60.0840122 C8.45000342,60.5160144 9.2719952,60.7320122 10.232,60.7320122 C11.0720042,60.7320122 11.791997,60.6180133 12.392,60.3900122 C12.992003,60.1620111 13.5319976,59.8920138 14.012,59.5800122 L14.912,63.3960122 Z M30.8840001,53.7480122 L24.0080001,53.7480122 L24.0080001,64.4040122 L19.4720001,64.4040122 L19.4720001,39.2040122 L24.0080001,39.2040122 L24.0080001,49.5720122 L30.8840001,49.5720122 L30.8840001,39.2040122 L35.4200001,39.2040122 L35.4200001,64.4040122 L30.8840001,64.4040122 L30.8840001,53.7480122 Z M42.6800002,42.0480122 C44.1440075,39.816001 46.3759852,38.7000122 49.3760002,38.7000122 C50.936008,38.7000122 52.2799946,39.0060091 53.4080002,39.6180122 C54.5360058,40.2300153 55.4599966,41.1060065 56.1800002,42.2460122 C56.9000038,43.3860179 57.4339985,44.7660041 57.7820002,46.3860122 C58.1300019,48.0060203 58.3040002,49.8120022 58.3040002,51.8040122 C58.3040002,56.0760336 57.5540077,59.328001 56.0540002,61.5600122 C54.5539927,63.7920234 52.328015,64.9080122 49.3760002,64.9080122 C47.7919923,64.9080122 46.4420058,64.6020153 45.3260002,63.9900122 C44.2099946,63.3780091 43.2920038,62.5020179 42.5720002,61.3620122 C41.8519966,60.2220065 41.3240019,58.8420203 40.9880002,57.2220122 C40.6519985,55.6020041 40.4840002,53.7960222 40.4840002,51.8040122 C40.4840002,47.5319908 41.2159929,44.2800234 42.6800002,42.0480122 Z M45.2360002,51.8040122 C45.2360002,53.0760186 45.3079995,54.2580067 45.4520002,55.3500122 C45.5960009,56.4420177 45.8359985,57.3840082 46.1720002,58.1760122 C46.5080019,58.9680162 46.9339976,59.5920099 47.4500002,60.0480122 C47.9660028,60.5040145 48.6079964,60.7320122 49.3760002,60.7320122 C50.7680072,60.7320122 51.8119967,60.0240193 52.5080002,58.6080122 C53.2040037,57.1920051 53.5520002,54.9240278 53.5520002,51.8040122 C53.5520002,50.5800061 53.4800009,49.4220177 53.3360002,48.3300122 C53.1919995,47.2380067 52.9580018,46.2900162 52.6340002,45.4860122 C52.3099986,44.6820082 51.8840028,44.0460145 51.3560002,43.5780122 C50.8279976,43.1100099 50.1680042,42.8760122 49.3760002,42.8760122 C46.6159864,42.8760122 45.2360002,45.8519824 45.2360002,51.8040122 L45.2360002,51.8040122 Z M63.7640003,39.2040122 L68.3000003,39.2040122 L68.3000003,64.4040122 L63.7640003,64.4040122 L63.7640003,39.2040122 Z M88.6280004,63.3960122 C88.0039973,63.9240148 87.1700056,64.308011 86.1260004,64.5480122 C85.0819952,64.7880134 84.0440055,64.9080122 83.0120004,64.9080122 C81.7159939,64.9080122 80.510006,64.6860144 79.3940004,64.2420122 C78.2779948,63.79801 77.3000046,63.0600174 76.4600004,62.0280122 C75.6199962,60.996007 74.9600028,59.6400206 74.4800004,57.9600122 C73.999998,56.2800038 73.7600004,54.2160244 73.7600004,51.7680122 C73.7600004,49.2239995 74.0299977,47.1120206 74.5700004,45.4320122 C75.1100031,43.7520038 75.817996,42.4140172 76.6940004,41.4180122 C77.5700048,40.4220072 78.5719947,39.7200142 79.7000004,39.3120122 C80.828006,38.9040102 81.9679946,38.7000122 83.1200004,38.7000122 C84.2960063,38.7000122 85.321996,38.7960112 86.1980004,38.9880122 C87.0740048,39.1800132 87.7879976,39.396011 88.3400004,39.6360122 L87.4400004,43.6320122 C86.9839981,43.392011 86.4500034,43.2060129 85.8380004,43.0740122 C85.2259973,42.9420115 84.5000046,42.8760122 83.6600004,42.8760122 C82.0039921,42.8760122 80.7320048,43.596005 79.8440004,45.0360122 C78.9559959,46.4760194 78.5120004,48.7319968 78.5120004,51.8040122 C78.5120004,53.1240188 78.6139994,54.3300067 78.8180004,55.4220122 C79.0220014,56.5140177 79.3459982,57.4560082 79.7900004,58.2480122 C80.2340026,59.0400162 80.797997,59.65201 81.4820004,60.0840122 C82.1660038,60.5160144 82.9879956,60.7320122 83.9480004,60.7320122 C84.7880046,60.7320122 85.5079974,60.6180133 86.1080004,60.3900122 C86.7080034,60.1620111 87.247998,59.8920138 87.7280004,59.5800122 L88.6280004,63.3960122 Z M93.1880005,39.2040122 L105.788,39.2040122 L105.788,43.3800122 L97.7240005,43.3800122 L97.7240005,49.5720122 L105.032,49.5720122 L105.032,53.7480122 L97.7240005,53.7480122 L97.7240005,60.2280122 L105.932,60.2280122 L105.932,64.4040122 L93.1880005,64.4040122 L93.1880005,39.2040122 Z" id="my" fill="#FC6A7F"></path>
            <rect id="rectangle3" fill="#FFFFFF" x="1" y="30" width="59" height="5"></rect>
            <rect id="rectangle2" fill="#FFFFFF" x="72" y="30" width="34" height="5"></rect>
            <rect id="rectangle1" fill="#FFFFFF" x="63.7600021" y="30" width="4.53999996" height="5"></rect>
        </g>
    </g>
</svg>